<?xml version="1.0" encoding="iso-8859-1"?>
<!-- Uploaded to: SVG Repo, www.svgrepo.com, Generator: SVG Repo Mixer Tools -->
<svg height="800px" width="800px" version="1.1" id="Layer_1" xmlns="http://www.w3.org/2000/svg" xmlns:xlink="http://www.w3.org/1999/xlink" 
	 viewBox="0 0 512.587 512.587" xml:space="preserve">
<g transform="translate(1)">
	<g>
		<path style="fill:#FFE100;" d="M198.12,77.387c-4.267,0-7.68-2.56-8.533-6.827c-5.12-22.187-10.24-30.72-21.333-47.787
			c-1.707-2.56-3.413-5.973-5.12-9.387c-2.56-3.413-1.707-9.387,2.56-11.947S175.08,0.587,177.64,4
			c1.707,3.413,4.267,6.827,5.973,9.387c11.093,17.92,17.92,28.16,23.893,52.907c0.853,4.267-1.707,9.387-5.973,10.24
			C199.827,77.387,198.973,77.387,198.12,77.387z"/>
		<path style="fill:#FFE100;" d="M329.533,77.387c-0.853,0-1.707,0-1.707,0c-4.267-0.853-7.68-5.973-5.973-10.24
			c5.973-24.747,12.8-35.84,23.893-53.76c1.707-2.56,3.413-5.973,5.973-9.387c2.56-4.267,7.68-5.12,11.947-2.56
			s5.12,7.68,2.56,11.947c-1.707,3.413-4.267,6.827-5.973,9.387C349.16,39.84,344.04,48.373,338.92,70.56
			C336.36,74.827,332.947,77.387,329.533,77.387z"/>
		<path style="fill:#FFE100;" d="M359.4,236.107c-6.827-15.36-10.24-31.573-10.24-47.787v-2.56c0-16.213,4.267-31.573,11.093-46.933
			c10.24-21.333,6.827-51.2-14.507-64.853c-23.04-16.213-81.92,11.947-90.453,20.48C246.76,85.92,187.88,57.76,163.987,73.12
			c-21.333,14.507-23.893,44.373-14.507,64.853c7.68,15.36,11.947,31.573,11.947,47.787v2.56c0,16.213-3.413,32.427-9.387,47.787
			c-22.187,51.2-67.413,157.013-67.413,216.747c0,0,51.2-13.653,81.067-6.827c30.72,7.68,67.413,23.893,89.6,23.893
			s58.88-16.213,89.6-23.893c29.867-6.827,81.067,6.827,81.067,6.827C425.96,393.12,380.733,287.307,359.4,236.107"/>
	</g>
	<path style="fill:#FDCC00;" d="M344.893,446.027c-30.72,7.68-67.413,23.893-89.6,23.893s-58.88-16.213-89.6-23.893
		c-29.867-6.827-81.067,6.827-81.067,6.827c0,28.16,74.24,51.2,170.667,51.2s170.667-23.04,170.667-51.2
		C425.96,452.853,374.76,439.2,344.893,446.027"/>
	<g>
		<path style="fill:#FFFFFF;" d="M189.587,73.973c-21.333,14.507-23.893,44.373-14.507,64.853
			c6.827,14.507,11.093,30.72,11.093,46.933v2.56c0,16.213-3.413,32.427-9.387,47.787c-20.48,49.493-64,151.04-66.56,211.627
			c-14.507,2.56-25.6,5.12-25.6,5.12c0-59.733,45.227-165.547,66.56-216.747c6.827-15.36,10.24-31.573,10.24-47.787v-2.56
			c0-16.213-4.267-31.573-11.093-46.933c-10.24-21.333-6.827-51.2,14.507-64.853c8.533-5.12,20.48-5.973,33.28-3.413
			C194.707,71.413,192.147,72.267,189.587,73.973"/>
		<path style="fill:#FFFFFF;" d="M157.16,445.173c-23.893,1.707-46.933,7.68-46.933,7.68c0,27.307,67.413,49.493,157.867,51.2
			c-4.267,0-8.533,0-12.8,0c-96.427,0-170.667-23.04-170.667-51.2C84.627,452.853,126.44,441.76,157.16,445.173"/>
	</g>
	<g>
		<path style="fill:#FFA800;" d="M321,73.973c21.333,14.507,23.893,44.373,14.507,64.853c-6.827,14.507-11.093,30.72-11.093,46.933
			v2.56c0,16.213,3.413,32.427,9.387,47.787c21.333,49.493,64,151.04,66.56,210.773c14.507,2.56,25.6,5.12,25.6,5.12
			c0-59.733-45.227-165.547-66.56-216.747c-6.827-14.507-10.24-30.72-10.24-46.933v-2.56c0-16.213,4.267-31.573,11.093-46.933
			c10.24-21.333,6.827-51.2-14.507-64.853c-8.533-5.12-20.48-5.973-33.28-3.413C315.88,71.413,318.44,72.267,321,73.973"/>
		<path style="fill:#FFA800;" d="M353.427,445.173c23.893,1.707,46.933,7.68,46.933,7.68c0,27.307-67.413,49.493-157.867,51.2
			c4.267,0,8.533,0,12.8,0c96.427,0,170.667-23.04,170.667-51.2C425.96,452.853,384.147,441.76,353.427,445.173"/>
	</g>
	<path d="M255.293,478.453c-15.36,0-34.987-6.827-55.467-13.653c-11.947-4.267-24.747-7.68-35.84-10.24
		c-5.12-0.853-11.093-1.707-18.773-1.707c-27.307,0-58.027,8.533-58.027,8.533c-2.56,0-5.973,0-7.68-1.707
		c-2.56-1.707-3.413-4.267-3.413-6.827c0-60.587,43.52-162.987,66.56-217.6l1.707-2.56c5.973-13.653,8.533-29.013,8.533-44.373
		v-2.56c0-13.653-3.413-27.307-11.093-42.667c-11.093-23.893-7.68-58.88,17.067-75.947c6.827-5.12,15.36-6.827,24.747-6.827
		c25.6,0,57.173,14.507,71.68,23.893c14.507-9.387,46.933-23.893,72.533-23.893c9.387,0,17.92,1.707,23.893,5.973
		c24.747,17.067,28.16,52.053,17.067,75.947c-6.827,15.36-11.093,29.867-11.093,42.667v3.413c0,15.36,3.413,30.72,9.387,44.373
		c22.187,51.2,67.413,158.72,67.413,220.16c0,2.56-0.853,5.12-3.413,6.827s-5.12,1.707-7.68,1.707c0,0-31.573-8.533-58.027-8.533
		c-7.68,0-13.653,0.853-18.773,1.707c-11.093,2.56-23.893,6.827-35.84,10.24C290.28,471.627,270.653,478.453,255.293,478.453z
		 M145.213,435.787c8.533,0,16.213,0.853,22.187,2.56c11.947,2.56,24.747,6.827,36.693,11.093c18.773,5.973,38.4,12.8,50.347,12.8
		c12.8,0,31.573-5.973,50.347-12.8c11.947-4.267,24.747-8.533,36.693-11.093c6.827-1.707,13.653-2.56,22.187-2.56
		c18.773,0,39.253,3.413,51.2,5.973c-5.12-59.733-45.227-154.453-65.707-202.24c-6.827-16.213-10.24-33.28-10.24-51.2v-2.56
		c0-16.213,4.267-32.427,11.947-50.347c8.533-17.92,5.973-42.667-11.093-54.613c-1.707-2.56-5.973-3.413-11.947-3.413
		c-24.747,0-60.587,17.92-65.707,23.04c-3.413,3.413-8.533,3.413-11.947,0c-5.973-5.12-41.813-23.04-66.56-23.04
		c-5.973,0-11.093,0.853-14.507,3.413c-17.92,11.947-19.627,36.693-11.093,54.613c8.533,17.92,11.947,34.133,11.947,50.347v2.56
		c0,17.92-3.413,34.987-10.24,51.2l-0.853,2.56C139.24,289.013,98.28,383.733,94.013,441.76
		C105.96,439.2,126.44,435.787,145.213,435.787z"/>
	<path d="M187.027,461.387c-5.12,0-8.533-3.413-8.533-8.533c0-24.747,11.093-60.587,23.04-98.133l5.12-15.36
		c1.707-4.267,5.973-6.827,11.093-5.973c4.267,1.707,6.827,5.973,5.973,11.093l-5.12,15.36c-11.947,35.84-23.04,70.827-23.04,93.013
		C195.56,457.12,192.147,461.387,187.027,461.387z"/>
	<path d="M224.573,316.32c-0.853,0-1.707,0-2.56,0c-4.267-0.853-6.827-5.973-5.973-10.24c8.533-31.573,12.8-55.467,12.8-74.24
		c0-5.12,3.413-8.533,8.533-8.533c5.12,0,8.533,3.413,8.533,8.533c0,20.48-4.267,46.08-13.653,79.36
		C232.253,313.76,228.84,316.32,224.573,316.32z"/>
	<path d="M144.36,386.293c-0.853,0-0.853,0-1.707,0c-5.12-1.707-7.68-5.973-6.827-10.24c5.973-28.16,15.36-59.733,25.6-87.893
		c1.707-4.267,6.827-6.827,11.093-5.12c4.267,1.707,6.827,6.827,5.12,11.093c-10.24,28.16-19.627,58.027-25.6,85.333
		C152.04,383.733,148.627,386.293,144.36,386.293z"/>
	<path d="M135.827,452.853c-5.12,0-8.533-3.413-8.533-8.533c0-10.24,0.853-22.187,2.56-35.84c0.853-4.267,5.12-7.68,9.387-6.827
		c4.267,0.853,7.68,5.12,6.827,9.387c-0.853,12.8-1.707,23.893-1.707,33.28C144.36,449.44,140.093,452.853,135.827,452.853z"/>
	<path d="M189.587,77.387c-4.267,0-7.68-2.56-8.533-6.827c-5.12-22.187-10.24-30.72-21.333-47.787
		c-1.707-2.56-3.413-5.973-5.12-9.387C152.04,9.973,152.893,4,157.16,1.44c3.413-1.707,9.387-0.853,11.093,3.413
		c1.707,3.413,4.267,6.827,5.973,9.387c11.093,17.92,17.92,28.16,23.893,52.907c0.853,4.267-1.707,9.387-5.973,10.24
		C191.293,77.387,190.44,77.387,189.587,77.387z"/>
	<path d="M341.48,316.32c-3.413,0-6.827-2.56-7.68-5.973c-7.68-20.48-16.213-43.52-25.6-68.267c-1.707-4.267,0-9.387,5.12-11.093
		c4.267-1.707,9.387,0,11.093,5.12c10.24,24.747,18.773,47.787,26.453,68.267c1.707,4.267-0.853,9.387-5.12,11.093
		C343.187,316.32,342.333,316.32,341.48,316.32z"/>
	<path d="M374.76,452.853c-5.12,0-8.533-3.413-8.533-8.533c0-21.333-7.68-55.467-22.187-99.84c-1.707-4.267,0.853-9.387,5.12-11.093
		c4.267-1.707,9.387,0.853,11.093,5.12c15.36,46.933,23.04,82.773,23.04,105.813C383.293,449.44,379.88,452.853,374.76,452.853z"/>
	<path d="M323.56,461.387c-5.12,0-8.533-3.413-8.533-8.533c0-20.48-5.12-51.2-16.213-100.693c-0.853-4.267,1.707-9.387,6.827-10.24
		c4.267-0.853,9.387,1.707,10.24,6.827c11.947,50.347,17.067,82.773,17.067,104.107C332.093,457.12,327.827,461.387,323.56,461.387z
		"/>
	<path d="M255.293,512.587c-88.747,0-179.2-20.48-179.2-59.733c0-4.267,2.56-6.827,5.973-8.533c1.707,0,33.28-8.533,63.147-8.533
		c8.533,0,16.213,0.853,22.187,2.56c11.947,2.56,24.747,6.827,36.693,11.093c18.773,5.973,38.4,12.8,50.347,12.8
		s31.573-5.973,50.347-12.8c11.947-4.267,24.747-8.533,36.693-11.093c6.827-1.707,13.653-2.56,22.187-2.56
		c29.013,0,61.44,8.533,63.147,8.533c3.413,0.853,5.973,4.267,5.973,8.533C434.493,492.107,344.04,512.587,255.293,512.587z
		 M95.72,458.827c11.947,17.067,69.973,36.693,159.573,36.693s147.627-19.627,159.573-36.693
		c-11.093-2.56-31.573-5.973-49.493-5.973c-7.68,0-13.653,0.853-18.773,1.707c-11.093,2.56-23.893,6.827-35.84,10.24
		c-20.48,6.827-40.107,13.653-55.467,13.653s-34.987-6.827-55.467-13.653c-11.947-4.267-24.747-7.68-35.84-10.24
		c-5.12-0.853-11.093-1.707-18.773-1.707C126.44,452.853,106.813,456.267,95.72,458.827z"/>
	<path d="M321,77.387c-0.853,0-1.707,0-1.707,0c-4.267-0.853-7.68-5.973-5.973-10.24c5.973-24.747,12.8-35.84,23.893-53.76
		c1.707-2.56,3.413-5.973,5.973-9.387c2.56-4.267,7.68-5.12,11.947-2.56s5.12,7.68,2.56,11.947
		c-1.707,3.413-4.267,6.827-5.973,9.387c-11.093,17.067-16.213,25.6-21.333,47.787C327.827,74.827,324.413,77.387,321,77.387z"/>
</g>
</svg>