<?xml version="1.0" encoding="iso-8859-1"?>
<!-- Uploaded to: SVG Repo, www.svgrepo.com, Generator: SVG Repo Mixer Tools -->
<svg height="800px" width="800px" version="1.1" id="Layer_1" xmlns="http://www.w3.org/2000/svg" xmlns:xlink="http://www.w3.org/1999/xlink" 
	 viewBox="0 0 503.172 503.172" xml:space="preserve">
<g transform="translate(1 1)">
	<path style="fill:#FD9808;" d="M426.255,280.6V179.083c0-45.903-37.959-83.862-83.862-83.862c-4.414,0-8.828,0.883-13.241,0.883
		c39.724,6.179,70.621,40.607,70.621,82.979V280.6c11.476,15.89,17.655,36.193,17.655,57.379s-6.179,40.607-17.655,57.379v88.276
		c0,4.414-3.531,8.828-8.828,8.828h26.483c4.414,0,8.828-3.531,8.828-8.828v-88.276c11.476-15.89,17.655-36.193,17.655-57.379
		S437.731,297.372,426.255,280.6"/>
	<path style="fill:#DB4D6C;" d="M179.966,237.345H65.207V117.29c0-60.028,48.552-109.462,109.462-109.462l0,0
		c2.648,0,5.297,2.648,5.297,5.297V237.345z"/>
	<path style="fill:#FFFFFF;" d="M179.083,10.476c-0.883-1.766-2.648-2.648-4.414-2.648c-60.91,0-109.462,49.434-109.462,109.462
		v120.055H91.69V117.29C91.69,64.324,128.766,20.186,179.083,10.476"/>
	<path style="fill:#FFDD09;" d="M197.621,493.345H47.552c-5.297,0-8.828-4.414-8.828-8.828V316.793h167.724v167.724
		C206.448,489.814,202.034,493.345,197.621,493.345"/>
	<path style="fill:#FFFFFF;" d="M65.207,484.517V316.793H38.724v167.724c0,5.297,4.414,8.828,8.828,8.828h26.483
		C69.621,493.345,65.207,489.814,65.207,484.517"/>
	<path style="fill:#FFDD09;" d="M47.552,316.793h150.069v-79.448H47.552V316.793z"/>
	<path style="fill:#FFFFFF;" d="M47.552,316.793h26.483v-79.448H47.552V316.793z"/>
	<g>
		<path style="fill:#FFDD09;" d="M418.31,338.862c0-21.186-6.179-40.607-17.655-57.379V179.966
			c0-45.903-37.959-83.862-83.862-83.862c-10.593,0-57.379,37.959-57.379,83.862v101.517c-11.476,15.89-17.655,36.193-17.655,57.379
			s6.179,40.607,17.655,57.379v88.276c0,4.414,3.531,8.828,8.828,8.828h123.586c4.414,0,8.828-3.531,8.828-8.828v-88.276
			C412.131,380.352,418.31,360.048,418.31,338.862"/>
		<path style="fill:#FFDD09;" d="M453.621,281.483V179.966c0-45.903-37.959-83.862-83.862-83.862c-4.414,0-8.828,0.883-13.241,0.883
			c39.724,6.179,70.621,40.607,70.621,82.979v101.517c11.476,15.89,17.655,36.193,17.655,57.379s-6.179,40.607-17.655,57.379v88.276
			c0,4.414-3.531,8.828-8.828,8.828h26.483c4.414,0,8.828-3.531,8.828-8.828v-88.276c11.476-15.89,17.655-36.193,17.655-57.379
			S465.097,298.255,453.621,281.483"/>
	</g>
	<path d="M197.621,502.172H47.552c-9.71,0-17.655-7.945-17.655-17.655V307.966h185.379v176.552
		C215.276,494.228,207.331,502.172,197.621,502.172z M47.552,325.621v158.897h150.069l0,0V325.621H47.552z"/>
	<path d="M206.448,325.621H38.724v-97.103h167.724V325.621z M56.379,307.966h132.414v-61.793H56.379V307.966z"/>
	<path d="M188.793,246.172H56.379V117.29C56.379,51.966,109.345-1,174.669-1c7.945,0,14.124,6.179,14.124,14.124V246.172z
		 M74.034,228.517h97.103V16.655C117.29,18.421,74.034,62.559,74.034,117.29V228.517z"/>
	<path d="M418.31,502.172H268.241c-9.71,0-17.655-7.945-17.655-17.655V398.89c-11.476-17.655-17.655-38.841-17.655-60.028
		s6.179-42.372,17.655-60.028v-98.869c0-51.2,41.49-92.69,92.69-92.69s92.69,41.49,92.69,92.69v98.869
		c11.476,17.655,17.655,38.841,17.655,60.028s-6.179,42.372-17.655,60.028v85.628C435.966,494.228,428.021,502.172,418.31,502.172z
		 M343.276,104.931c-41.49,0-75.034,33.545-75.034,75.034v104.166l-1.766,2.648c-10.593,15.007-15.89,33.545-15.89,52.083
		c0,18.538,5.297,37.076,15.89,52.083l1.766,2.648v90.924H418.31v-90.924l1.766-2.648c10.593-15.007,15.89-33.545,15.89-52.083
		c0-18.538-6.179-37.959-16.772-52.966l-0.883-1.766V179.966C418.31,138.476,384.766,104.931,343.276,104.931z"/>
	<path d="M95.221,129.648L95.221,129.648c-5.297-0.883-8.828-5.297-8.828-9.71c4.414-34.428,31.779-76.8,67.09-84.745
		c4.414-0.883,9.71,1.766,10.593,7.062c0.883,4.414-1.766,9.71-6.179,10.593c-26.483,6.179-49.434,41.49-52.966,68.855
		C103.166,126.117,99.634,129.648,95.221,129.648z"/>
	<path d="M409.483,352.103c-5.297,0-8.828-3.531-8.828-8.828c0-29.131-23.835-52.966-52.966-52.966h-44.138
		c-29.131,0-52.966,23.834-52.966,52.966c0,5.297-3.531,8.828-8.828,8.828s-8.828-3.531-8.828-8.828
		c0-38.841,31.779-70.621,70.621-70.621h44.138c38.841,0,70.621,31.779,70.621,70.621
		C418.31,348.572,414.779,352.103,409.483,352.103z"/>
	<path d="M356.517,405.069h-26.483c-29.131,0-52.966-23.834-52.966-52.966c0-5.297,3.531-8.828,8.828-8.828
		c5.297,0,8.828,3.531,8.828,8.828c0,19.421,15.89,35.31,35.31,35.31h26.483c24.717,0,44.138-19.421,44.138-44.138
		c0-5.297,3.531-8.828,8.828-8.828s8.828,3.531,8.828,8.828C418.31,377.703,390.945,405.069,356.517,405.069z"/>
	<path d="M285.897,360.931c-5.297,0-8.828-3.531-8.828-8.828c0-19.421,15.89-35.31,35.31-35.31c5.297,0,8.828,3.531,8.828,8.828
		s-3.531,8.828-8.828,8.828c-9.71,0-17.655,7.945-17.655,17.655C294.724,357.4,291.193,360.931,285.897,360.931z"/>
	<path d="M427.138,290.31c-2.648,0-6.179-2.648-7.945-4.414c-17.655-25.6-45.021-39.724-75.917-39.724s-59.145,15.007-76.8,40.607
		c-2.648,4.414-7.945,5.297-12.359,2.648c-4.414-2.648-5.297-7.945-2.648-12.359c20.303-30.014,54.731-47.669,90.924-47.669
		s69.738,16.772,90.041,46.786c2.648,4.414,2.648,10.593-1.766,13.241C430.669,290.31,428.903,290.31,427.138,290.31z"/>
	<path d="M342.393,448.324c-36.193,0-70.621-17.655-90.924-47.669c-2.648-4.414-1.766-9.71,2.648-12.359
		c4.414-2.648,9.71-1.766,12.359,2.648c17.655,25.6,45.903,40.607,76.8,40.607s59.145-15.007,76.8-40.607
		c2.648-4.414,7.945-5.297,12.359-2.648c4.414,2.648,5.297,7.945,2.648,12.359C413.014,430.669,378.586,448.324,342.393,448.324z"/>
</g>
</svg>