<?xml version="1.0" encoding="iso-8859-1"?>
<!-- Uploaded to: SVG Repo, www.svgrepo.com, Generator: SVG Repo Mixer Tools -->
<svg height="800px" width="800px" version="1.1" id="Layer_1" xmlns="http://www.w3.org/2000/svg" xmlns:xlink="http://www.w3.org/1999/xlink" 
	 viewBox="0 0 512.001 512.001" xml:space="preserve">
<polygon style="fill:#EE2712;" points="223.512,0 230.558,52.84 230.558,81.254 281.444,81.254 281.444,52.84 288.49,0 "/>
<polygon style="fill:#FF5D3D;" points="256.001,81.254 256.001,0 223.512,0 230.558,52.84 230.558,81.254 "/>
<path style="fill:#F7EE00;" d="M376.545,512c39.748-34.021,64.945-84.55,64.945-140.971c0-90.11-64.259-165.199-149.45-181.977
	v-79.384h4.562c7.555,0,13.679-6.125,13.679-13.681V66.52c0-7.556-6.123-13.681-13.679-13.681h-81.202
	c-7.555,0-13.679,6.125-13.679,13.681v29.466c0,7.556,6.123,13.681,13.679,13.681h4.562v79.384
	c-85.191,16.777-149.45,91.867-149.45,181.977c0,56.421,25.198,106.951,64.945,140.971H376.545z"/>
<g>
	<path style="fill:#FFFC99;" d="M256.001,52.84H215.4c-7.555,0-13.679,6.125-13.679,13.681v29.466
		c0,7.556,6.123,13.681,13.679,13.681h4.562v79.384c-85.191,16.777-149.45,91.867-149.45,181.977
		c0,56.421,25.198,106.951,64.945,140.971h120.544V52.84z"/>
	<path style="fill:#FFFC99;" d="M296.602,109.668c7.555,0,13.679-6.125,13.679-13.681V66.521c0-7.556-6.123-13.681-13.679-13.681
		h-81.202c-7.555,0-13.679,6.125-13.679,13.681v29.466c0,7.556,6.123,13.681,13.679,13.681h4.562h72.077
		C292.039,109.668,296.602,109.668,296.602,109.668z"/>
</g>
<path style="fill:#F7EE00;" d="M256.001,52.84H215.4c-7.555,0-13.679,6.125-13.679,13.681v29.466
	c0,7.556,6.123,13.681,13.679,13.681h4.562h36.039V52.84z"/>
</svg>