<?xml version="1.0" encoding="iso-8859-1"?>
<!-- Uploaded to: SVG Repo, www.svgrepo.com, Generator: SVG Repo Mixer Tools -->
<svg height="800px" width="800px" version="1.1" id="Layer_1" xmlns="http://www.w3.org/2000/svg" xmlns:xlink="http://www.w3.org/1999/xlink" 
	 viewBox="0 0 502.767 502.767" xml:space="preserve">
<g transform="translate(1 1)">
	<g>
		<path style="fill:#FFDD09;" d="M124.482,275.144h33.574v-50.361h-33.574V275.144z"/>
		<path style="fill:#FFDD09;" d="M325.925,275.144h16.787v-50.361h-16.787V275.144z"/>
	</g>
	<path style="fill:#FD9808;" d="M342.711,275.144h16.787v-50.361h-16.787V275.144z"/>
	<g>
		<path style="fill:#FFDD09;" d="M409.859,275.144H241.99H74.121c0,0-50.361,30.216-50.361,109.115s50.361,109.115,50.361,109.115
			H241.99h167.869c0,0,50.361-30.216,50.361-109.115S409.859,275.144,409.859,275.144"/>
		<path style="fill:#FFDD09;" d="M384.679,6.554H216.81H74.121c0,0-50.361,30.216-50.361,109.115s50.361,109.115,50.361,109.115
			H216.81h167.869c0,0,50.361-30.216,50.361-109.115S384.679,6.554,384.679,6.554"/>
	</g>
	<g>
		<path style="fill:#FD9808;" d="M409.859,6.554h-25.18c0,0,50.361,30.216,50.361,109.115s-50.361,109.115-50.361,109.115h25.18
			c0,0,50.361-30.216,50.361-109.115S409.859,6.554,409.859,6.554"/>
		<path style="fill:#FD9808;" d="M409.859,275.144h-25.18c0,0,50.361,30.216,50.361,109.115s-50.361,109.115-50.361,109.115h25.18
			c0,0,50.361-30.216,50.361-109.115S409.859,275.144,409.859,275.144"/>
	</g>
	<g>
		<path style="fill:#FFDD09;" d="M367.892,275.144h16.787v-50.361h-16.787V275.144z"/>
		<path style="fill:#FFDD09;" d="M435.039,6.554h-25.18c0,0,50.361,30.216,50.361,109.115s-50.361,109.115-50.361,109.115h25.18
			c0,0,50.361-30.216,50.361-109.115S435.039,6.554,435.039,6.554"/>
		<path style="fill:#FFDD09;" d="M435.039,275.144h-25.18c0,0,50.361,30.216,50.361,109.115s-50.361,109.115-50.361,109.115h25.18
			c0,0,50.361-30.216,50.361-109.115S435.039,275.144,435.039,275.144"/>
	</g>
	<g>
		<path style="fill:#FFFFFF;" d="M74.121,493.374h25.18c0,0-50.361-30.216-50.361-109.115s50.361-109.115,50.361-109.115h-25.18
			c0,0-50.361,30.216-50.361,109.115S74.121,493.374,74.121,493.374"/>
		<path style="fill:#FFFFFF;" d="M74.121,224.784h25.18c0,0-50.361-30.216-50.361-109.115S99.302,6.554,99.302,6.554h-25.18
			c0,0-50.361,30.216-50.361,109.115S74.121,224.784,74.121,224.784"/>
	</g>
	<path style="fill:#54C9FD;" d="M138.751,451.407H93.426c-0.839,0-2.518-0.839-2.518-2.518v-46.164c0-0.839,0.839-2.518,2.518-2.518
		h46.164c0.839,0,2.518,0.839,2.518,2.518v46.164C141.269,450.567,140.43,451.407,138.751,451.407"/>
	<g>
		<path style="fill:#1CD759;" d="M300.744,308.718c-14.269,0-25.18,26.02-25.18,37.771c0,11.751,10.911,20.984,25.18,20.984
			s25.18-9.233,25.18-20.984C325.925,334.738,315.013,308.718,300.744,308.718"/>
		<path style="fill:#1CD759;" d="M376.285,459.8c14.269,0,25.18-26.02,25.18-37.77c0-11.751-10.911-20.984-25.18-20.984
			c-14.269,0-25.18,9.233-25.18,20.984C351.105,433.78,362.016,459.8,376.285,459.8"/>
	</g>
	<path style="fill:#DB4D6C;" d="M231.079,451.407h-46.164c-0.839,0-2.518-0.839-2.518-2.518v-46.164
		c0-0.839,0.839-2.518,2.518-2.518h46.164c0.839,0,2.518,0.839,2.518,2.518v46.164C233.597,450.567,232.757,451.407,231.079,451.407
		"/>
	<path style="fill:#1CD759;" d="M138.751,359.079H93.426c-0.839,0-2.518-0.839-2.518-2.518v-46.164c0-0.839,0.839-2.518,2.518-2.518
		h46.164c0.839,0,2.518,0.839,2.518,2.518v46.164C141.269,358.239,140.43,359.079,138.751,359.079"/>
	<g>
		<path style="fill:#54C9FD;" d="M231.079,359.079h-46.164c-0.839,0-2.518-0.839-2.518-2.518v-46.164
			c0-0.839,0.839-2.518,2.518-2.518h46.164c0.839,0,2.518,0.839,2.518,2.518v46.164
			C233.597,358.239,232.757,359.079,231.079,359.079"/>
		<path style="fill:#54C9FD;" d="M97.623,182.816c-5.875,0-10.911-2.518-14.269-7.554c-8.393-11.751-17.626-31.056-17.626-59.593
			s9.233-48.682,17.626-60.433c3.357-4.197,8.393-6.715,14.269-6.715h264.393c5.875,0,10.911,2.518,14.269,6.715
			c8.393,11.751,17.626,31.056,17.626,60.433s-9.233,48.682-17.626,59.593c-3.357,4.197-8.393,7.554-14.269,7.554H97.623z"/>
	</g>
	<path style="fill:#33A9F8;" d="M398.948,56.075c-3.357-4.197-8.393-6.715-14.269-6.715h-25.18c5.875,0,10.911,2.518,14.269,6.715
		c8.393,11.751,17.626,31.056,17.626,59.593s-9.233,48.682-17.626,60.433c-3.357,4.197-8.393,6.715-14.269,6.715h25.18
		c5.875,0,10.911-2.518,14.269-6.715c8.393-11.751,17.626-31.056,17.626-60.433S407.341,66.987,398.948,56.075"/>
	<path d="M412.377,501.767H71.603l-1.679-0.839c-2.518-1.679-54.557-34.413-54.557-116.669s52.039-114.99,54.557-116.669
		l1.679-0.839h340.774l1.679,0.839c2.518,1.679,54.557,33.574,54.557,116.669s-52.039,114.99-54.557,116.669L412.377,501.767z
		 M76.639,484.98h330.702c8.393-5.875,44.485-35.252,44.485-100.721c0-64.63-36.092-94.846-44.485-100.721H76.639
		c-8.393,5.875-44.485,35.252-44.485,100.721C32.154,448.888,68.246,479.105,76.639,484.98z"/>
	<path d="M412.377,233.177H71.603l-1.679-0.839c-2.518-1.679-54.557-34.413-54.557-116.669S67.407,0.679,69.925-0.161L71.603-1
		h340.774l1.679,0.839c2.518,1.679,54.557,33.574,54.557,116.669s-52.039,114.99-54.557,116.669H412.377z M76.639,216.39h330.702
		c8.393-5.875,44.485-35.252,44.485-100.721c0-64.63-36.092-94.846-44.485-100.721H76.639
		c-8.393,6.715-44.485,36.092-44.485,100.721S68.246,210.515,76.639,216.39z"/>
	<path d="M386.357,191.21H97.623c-8.393,0-15.948-4.197-20.984-10.911c-8.393-11.751-19.305-32.734-19.305-64.63
		s10.072-52.879,19.305-64.63c5.036-6.715,12.59-10.911,20.984-10.911h289.574c8.393,0,15.948,4.197,20.984,10.911
		c8.393,11.751,19.305,32.734,19.305,64.63s-10.072,52.879-19.305,64.63C402.305,187.013,394.751,191.21,386.357,191.21z
		 M97.623,56.915c-2.518,0-5.875,1.679-7.554,3.357c-7.554,10.911-15.948,28.538-15.948,55.397c0,27.698,8.393,45.325,15.948,55.397
		c1.679,2.518,4.197,3.357,7.554,3.357h289.574c2.518,0,5.875-1.679,7.554-3.357c7.554-10.072,15.948-27.698,15.948-55.397
		s-8.393-45.325-15.948-55.397c-1.679-2.518-4.197-3.357-7.554-3.357C387.197,56.915,97.623,56.915,97.623,56.915z"/>
	<path d="M166.449,283.538h-50.361V216.39h50.361V283.538z M132.875,266.751h16.787v-33.574h-16.787V266.751z"/>
	<path d="M367.892,283.538h-50.361V216.39h50.361V283.538z M334.318,266.751h16.787v-33.574h-16.787V266.751z"/>
	<path d="M138.751,367.472H93.426c-5.875,0-10.911-5.036-10.911-10.911v-46.164c0-5.875,5.036-10.911,10.911-10.911h46.164
		c5.875,0,10.911,5.036,10.911,10.911v46.164C149.662,363.275,144.626,367.472,138.751,367.472z M99.302,350.685h33.574v-33.574
		H99.302V350.685z"/>
	<path d="M231.079,367.472h-46.164c-5.875,0-10.911-5.036-10.911-10.911v-46.164c0-5.875,5.036-10.911,10.911-10.911h46.164
		c5.875,0,10.911,5.036,10.911,10.911v46.164C241.99,363.275,236.954,367.472,231.079,367.472z M191.63,350.685h33.574v-33.574
		H191.63V350.685z"/>
	<path d="M138.751,459.8H93.426c-5.875,0-10.911-5.036-10.911-10.911v-46.164c0-5.875,5.036-10.911,10.911-10.911h46.164
		c5.875,0,10.911,5.036,10.911,10.911v46.164C149.662,455.603,144.626,459.8,138.751,459.8z M99.302,443.013h33.574v-33.574H99.302
		V443.013z"/>
	<path d="M231.079,459.8h-46.164c-5.875,0-10.911-5.036-10.911-10.911v-46.164c0-5.875,5.036-10.911,10.911-10.911h46.164
		c5.875,0,10.911,5.036,10.911,10.911v46.164C241.99,455.603,236.954,459.8,231.079,459.8z M191.63,443.013h33.574v-33.574H191.63
		V443.013z"/>
	<path d="M300.744,375.866c-18.466,0-33.574-13.43-33.574-29.377c0-14.269,12.59-46.164,33.574-46.164
		c20.984,0,33.574,31.895,33.574,46.164C334.318,362.436,319.21,375.866,300.744,375.866z M300.744,317.111
		c-6.715,0-16.787,19.305-16.787,29.377c0,6.715,7.554,12.59,16.787,12.59c9.233,0,16.787-5.875,16.787-12.59
		C317.531,336.416,307.459,317.111,300.744,317.111z"/>
	<path d="M300.744,468.193c-5.036,0-8.393-3.357-8.393-8.393v-83.934c0-5.036,3.357-8.393,8.393-8.393
		c5.036,0,8.393,3.357,8.393,8.393V459.8C309.138,464.836,305.78,468.193,300.744,468.193z"/>
	<path d="M376.285,468.193c-20.984,0-33.574-31.895-33.574-46.164c0-15.948,15.108-29.377,33.574-29.377
		c18.466,0,33.574,13.43,33.574,29.377C409.859,436.298,397.269,468.193,376.285,468.193z M376.285,409.439
		c-9.233,0-16.787,5.875-16.787,12.59c0,10.072,10.072,29.377,16.787,29.377c6.715,0,16.787-19.305,16.787-29.377
		C393.072,415.315,385.518,409.439,376.285,409.439z"/>
	<path d="M376.285,401.046c-5.036,0-8.393-3.357-8.393-8.393v-83.934c0-5.036,3.357-8.393,8.393-8.393
		c5.036,0,8.393,3.357,8.393,8.393v83.934C384.679,397.689,381.321,401.046,376.285,401.046z"/>
</g>
</svg>